<?xml version="1.0" encoding="UTF-8" standalone="no"?>
<!DOCTYPE svg PUBLIC "-//W3C//DTD SVG 1.1//EN" "http://www.w3.org/Graphics/SVG/1.1/DTD/svg11.dtd">
<svg width="100%" height="100%" viewBox="0 0 678 361" version="1.1" xmlns="http://www.w3.org/2000/svg" xmlns:xlink="http://www.w3.org/1999/xlink" xml:space="preserve" xmlns:serif="http://www.serif.com/" style="fill-rule:evenodd;clip-rule:evenodd;stroke-linejoin:round;stroke-miterlimit:2;">
    <g transform="matrix(1,0,0,1,335,138)">
        <path d="M-94.453,-8.594C-100.807,-5.677 -107.747,-3.138 -115.273,-0.977C-122.799,1.185 -130.078,2.266 -137.109,2.266C-146.172,2.266 -154.479,1.016 -162.031,-1.484C-169.583,-3.984 -176.016,-7.734 -181.328,-12.734C-186.693,-17.786 -190.833,-24.102 -193.75,-31.68C-196.667,-39.258 -198.125,-48.125 -198.125,-58.281C-198.125,-76.875 -192.695,-91.549 -181.836,-102.305C-170.977,-113.06 -156.068,-118.438 -137.109,-118.438C-130.495,-118.438 -123.737,-117.643 -116.836,-116.055C-109.935,-114.466 -102.5,-111.771 -94.531,-107.969L-94.531,-89.609L-95.938,-89.609C-97.552,-90.859 -99.896,-92.5 -102.969,-94.531C-106.042,-96.562 -109.062,-98.255 -112.031,-99.609C-115.625,-101.224 -119.701,-102.565 -124.258,-103.633C-128.815,-104.701 -133.984,-105.234 -139.766,-105.234C-152.786,-105.234 -163.086,-101.055 -170.664,-92.695C-178.242,-84.336 -182.031,-73.021 -182.031,-58.75C-182.031,-43.698 -178.073,-31.992 -170.156,-23.633C-162.24,-15.273 -151.458,-11.094 -137.812,-11.094C-132.812,-11.094 -127.826,-11.589 -122.852,-12.578C-117.878,-13.568 -113.516,-14.844 -109.766,-16.406L-109.766,-44.922L-140.938,-44.922L-140.938,-58.516L-94.453,-58.516L-94.453,-8.594ZM2.5,0L-12.188,0L-12.188,-108.516C-14.427,-108.932 -17.357,-109.297 -20.977,-109.609C-24.596,-109.922 -27.786,-110.078 -30.547,-110.078C-38.984,-110.078 -44.935,-108.672 -48.398,-105.859C-51.862,-103.047 -53.594,-97.995 -53.594,-90.703L-53.594,-87.266L-27.891,-87.266L-27.891,-74.922L-53.125,-74.922L-53.125,0L-67.812,0L-67.812,-74.922L-77.734,-74.922L-77.734,-87.266L-67.812,-87.266L-67.812,-91.094C-67.812,-101.042 -64.779,-108.737 -58.711,-114.18C-52.643,-119.622 -43.828,-122.344 -32.266,-122.344C-28.672,-122.344 -25,-122.161 -21.25,-121.797C-17.5,-121.432 -14.479,-121.146 -12.188,-120.938L2.5,-121.562L2.5,0ZM104.609,-42.109L40.312,-42.109C40.312,-36.745 41.12,-32.07 42.734,-28.086C44.349,-24.102 46.562,-20.833 49.375,-18.281C52.083,-15.781 55.299,-13.906 59.023,-12.656C62.747,-11.406 66.849,-10.781 71.328,-10.781C77.266,-10.781 83.242,-11.966 89.258,-14.336C95.273,-16.706 99.557,-19.036 102.109,-21.328L102.891,-21.328L102.891,-5.312C97.943,-3.229 92.891,-1.484 87.734,-0.078C82.578,1.328 77.161,2.031 71.484,2.031C57.005,2.031 45.703,-1.888 37.578,-9.727C29.453,-17.565 25.391,-28.698 25.391,-43.125C25.391,-57.396 29.284,-68.724 37.07,-77.109C44.857,-85.495 55.104,-89.688 67.812,-89.688C79.583,-89.688 88.659,-86.25 95.039,-79.375C101.419,-72.5 104.609,-62.734 104.609,-50.078L104.609,-42.109ZM90.312,-53.359C90.26,-61.068 88.32,-67.031 84.492,-71.25C80.664,-75.469 74.844,-77.578 67.031,-77.578C59.167,-77.578 52.904,-75.26 48.242,-70.625C43.581,-65.99 40.938,-60.234 40.312,-53.359L90.312,-53.359ZM202.422,0L183.906,0L159.141,-33.516L134.219,0L117.109,0L151.172,-43.516L117.422,-87.266L135.938,-87.266L160.547,-54.297L185.234,-87.266L202.422,-87.266L168.125,-44.297L202.422,0ZM256.895,-87.793C256.895,-83.132 255.244,-79.15 251.943,-75.85C248.643,-72.549 244.661,-70.898 240,-70.898C235.339,-70.898 231.357,-72.549 228.057,-75.85C224.756,-79.15 223.105,-83.132 223.105,-87.793C223.105,-92.454 224.756,-96.436 228.057,-99.736C231.357,-103.037 235.339,-104.688 240,-104.688C244.661,-104.688 248.643,-103.037 251.943,-99.736C255.244,-96.436 256.895,-92.454 256.895,-87.793ZM254.629,-87.793C254.629,-91.829 253.2,-95.293 250.342,-98.184C247.484,-101.074 244.036,-102.52 240,-102.52C235.964,-102.52 232.516,-101.074 229.658,-98.184C226.8,-95.293 225.371,-91.829 225.371,-87.793C225.371,-83.757 226.8,-80.293 229.658,-77.402C232.516,-74.512 235.964,-73.066 240,-73.066C244.036,-73.066 247.484,-74.512 250.342,-77.402C253.2,-80.293 254.629,-83.757 254.629,-87.793ZM250.879,-79.199L246.523,-79.199L240.059,-86.133L236.895,-86.133L236.895,-79.199L233.672,-79.199L233.672,-97.07L239.766,-97.07C240.99,-97.07 241.999,-97.018 242.793,-96.914C243.587,-96.81 244.368,-96.556 245.137,-96.152C245.957,-95.71 246.559,-95.173 246.943,-94.541C247.327,-93.91 247.52,-93.118 247.52,-92.168C247.52,-90.905 247.152,-89.854 246.416,-89.014C245.68,-88.174 244.668,-87.507 243.379,-87.012L250.879,-79.199ZM244.004,-91.953C244.004,-92.422 243.913,-92.839 243.73,-93.203C243.548,-93.568 243.242,-93.867 242.812,-94.102C242.409,-94.323 241.979,-94.466 241.523,-94.531C241.068,-94.596 240.495,-94.629 239.805,-94.629L236.895,-94.629L236.895,-88.594L239.375,-88.594C240.182,-88.594 240.879,-88.656 241.465,-88.779C242.051,-88.903 242.533,-89.115 242.91,-89.414C243.314,-89.74 243.597,-90.098 243.76,-90.488C243.923,-90.879 244.004,-91.367 244.004,-91.953ZM-259.713,77.986C-261.361,78.145 -262.828,76.935 -262.986,75.287C-263.145,73.639 -261.935,72.172 -260.287,72.014C-86.762,55.329 86.762,55.329 260.287,72.014C261.935,72.172 263.145,73.639 262.986,75.287C262.828,76.935 261.361,78.145 259.713,77.986C86.571,61.338 -86.571,61.338 -259.713,77.986Z" style="fill:white;"/>
    </g>
    <g transform="matrix(1,0,0,1,-265,-72)">
        <path d="M308,319.651L308,328C308,332.415 304.415,336 300,336L288,336C283.585,336 280,332.415 280,328L280,278C280,273.585 283.585,270 288,270L300,270C304.415,270 308,273.585 308,278L308,286.349C309.819,285.484 311.853,285 314,285L886,285C888.147,285 890.181,285.484 892,286.349L892,278C892,273.585 895.585,270 900,270L912,270C916.415,270 920,273.585 920,278L920,328C920,332.415 916.415,336 912,336L900,336C895.585,336 892,332.415 892,328L892,319.651C890.181,320.516 888.147,321 886,321L314,321C311.853,321 309.819,320.516 308,319.651Z" style="fill:rgb(242,201,76);"/>
    </g>
    <g transform="matrix(1,0,0,1,335,348)">
        <path d="M-259.242,-3.797C-260.531,-3.234 -261.697,-2.707 -262.74,-2.215C-263.783,-1.723 -265.148,-1.207 -266.836,-0.668C-268.266,-0.223 -269.818,0.158 -271.494,0.475C-273.17,0.791 -275.016,0.949 -277.031,0.949C-280.828,0.949 -284.279,0.416 -287.385,-0.65C-290.49,-1.717 -293.191,-3.387 -295.488,-5.66C-297.738,-7.887 -299.496,-10.717 -300.762,-14.15C-302.027,-17.584 -302.66,-21.574 -302.66,-26.121C-302.66,-30.434 -302.051,-34.289 -300.832,-37.688C-299.613,-41.086 -297.855,-43.957 -295.559,-46.301C-293.332,-48.574 -290.643,-50.309 -287.49,-51.504C-284.338,-52.699 -280.84,-53.297 -276.996,-53.297C-274.184,-53.297 -271.377,-52.957 -268.576,-52.277C-265.775,-51.598 -262.664,-50.402 -259.242,-48.691L-259.242,-40.43L-259.77,-40.43C-262.652,-42.844 -265.512,-44.602 -268.348,-45.703C-271.184,-46.805 -274.219,-47.355 -277.453,-47.355C-280.102,-47.355 -282.486,-46.928 -284.607,-46.072C-286.729,-45.217 -288.621,-43.887 -290.285,-42.082C-291.902,-40.324 -293.162,-38.104 -294.064,-35.42C-294.967,-32.736 -295.418,-29.637 -295.418,-26.121C-295.418,-22.441 -294.92,-19.277 -293.924,-16.629C-292.928,-13.98 -291.645,-11.824 -290.074,-10.16C-288.434,-8.426 -286.518,-7.143 -284.326,-6.311C-282.135,-5.479 -279.82,-5.062 -277.383,-5.062C-274.031,-5.062 -270.891,-5.637 -267.961,-6.785C-265.031,-7.934 -262.289,-9.656 -259.734,-11.953L-259.242,-11.953L-259.242,-3.797ZM-216.457,-19.617C-216.457,-13.219 -218.098,-8.168 -221.379,-4.465C-224.66,-0.762 -229.055,1.09 -234.562,1.09C-240.117,1.09 -244.529,-0.762 -247.799,-4.465C-251.068,-8.168 -252.703,-13.219 -252.703,-19.617C-252.703,-26.016 -251.068,-31.072 -247.799,-34.787C-244.529,-38.502 -240.117,-40.359 -234.562,-40.359C-229.055,-40.359 -224.66,-38.502 -221.379,-34.787C-218.098,-31.072 -216.457,-26.016 -216.457,-19.617ZM-223.277,-19.617C-223.277,-24.703 -224.273,-28.482 -226.266,-30.955C-228.258,-33.428 -231.023,-34.664 -234.562,-34.664C-238.148,-34.664 -240.932,-33.428 -242.912,-30.955C-244.893,-28.482 -245.883,-24.703 -245.883,-19.617C-245.883,-14.695 -244.887,-10.963 -242.895,-8.42C-240.902,-5.877 -238.125,-4.605 -234.562,-4.605C-231.047,-4.605 -228.287,-5.865 -226.283,-8.385C-224.279,-10.904 -223.277,-14.648 -223.277,-19.617ZM-199.547,0L-206.156,0L-206.156,-54.703L-199.547,-54.703L-199.547,0ZM-157.43,-2.461C-159.633,-1.406 -161.725,-0.586 -163.705,0C-165.686,0.586 -167.789,0.879 -170.016,0.879C-172.852,0.879 -175.453,0.463 -177.82,-0.369C-180.188,-1.201 -182.215,-2.461 -183.902,-4.148C-185.613,-5.836 -186.938,-7.969 -187.875,-10.547C-188.812,-13.125 -189.281,-16.137 -189.281,-19.582C-189.281,-26.004 -187.518,-31.043 -183.99,-34.699C-180.463,-38.355 -175.805,-40.184 -170.016,-40.184C-167.766,-40.184 -165.557,-39.867 -163.389,-39.234C-161.221,-38.602 -159.234,-37.828 -157.43,-36.914L-157.43,-29.566L-157.781,-29.566C-159.797,-31.137 -161.877,-32.344 -164.021,-33.188C-166.166,-34.031 -168.258,-34.453 -170.297,-34.453C-174.047,-34.453 -177.006,-33.193 -179.174,-30.674C-181.342,-28.154 -182.426,-24.457 -182.426,-19.582C-182.426,-14.848 -181.365,-11.209 -179.244,-8.666C-177.123,-6.123 -174.141,-4.852 -170.297,-4.852C-168.961,-4.852 -167.602,-5.027 -166.219,-5.379C-164.836,-5.73 -163.594,-6.188 -162.492,-6.75C-161.531,-7.242 -160.629,-7.764 -159.785,-8.314C-158.941,-8.865 -158.273,-9.34 -157.781,-9.738L-157.43,-9.738L-157.43,-2.461ZM-116.121,0L-122.73,0L-122.73,-22.359C-122.73,-24.164 -122.836,-25.857 -123.047,-27.439C-123.258,-29.021 -123.645,-30.258 -124.207,-31.148C-124.793,-32.133 -125.637,-32.865 -126.738,-33.346C-127.84,-33.826 -129.27,-34.066 -131.027,-34.066C-132.832,-34.066 -134.719,-33.621 -136.688,-32.73C-138.656,-31.84 -140.543,-30.703 -142.348,-29.32L-142.348,0L-148.957,0L-148.957,-54.703L-142.348,-54.703L-142.348,-34.91C-140.285,-36.621 -138.152,-37.957 -135.949,-38.918C-133.746,-39.879 -131.484,-40.359 -129.164,-40.359C-124.922,-40.359 -121.688,-39.082 -119.461,-36.527C-117.234,-33.973 -116.121,-30.293 -116.121,-25.488L-116.121,0ZM-69.926,-19.617C-69.926,-13.219 -71.566,-8.168 -74.848,-4.465C-78.129,-0.762 -82.523,1.09 -88.031,1.09C-93.586,1.09 -97.998,-0.762 -101.268,-4.465C-104.537,-8.168 -106.172,-13.219 -106.172,-19.617C-106.172,-26.016 -104.537,-31.072 -101.268,-34.787C-97.998,-38.502 -93.586,-40.359 -88.031,-40.359C-82.523,-40.359 -78.129,-38.502 -74.848,-34.787C-71.566,-31.072 -69.926,-26.016 -69.926,-19.617ZM-76.746,-19.617C-76.746,-24.703 -77.742,-28.482 -79.734,-30.955C-81.727,-33.428 -84.492,-34.664 -88.031,-34.664C-91.617,-34.664 -94.4,-33.428 -96.381,-30.955C-98.361,-28.482 -99.352,-24.703 -99.352,-19.617C-99.352,-14.695 -98.355,-10.963 -96.363,-8.42C-94.371,-5.877 -91.594,-4.605 -88.031,-4.605C-84.516,-4.605 -81.756,-5.865 -79.752,-8.385C-77.748,-10.904 -76.746,-14.648 -76.746,-19.617ZM-73.406,-56.918C-73.664,-53.355 -74.566,-50.672 -76.113,-48.867C-77.66,-47.062 -79.734,-46.16 -82.336,-46.16C-83.602,-46.16 -84.773,-46.389 -85.852,-46.846C-86.93,-47.303 -87.949,-47.965 -88.91,-48.832C-90.012,-49.84 -90.943,-50.596 -91.705,-51.1C-92.467,-51.604 -93.305,-51.855 -94.219,-51.855C-95.438,-51.855 -96.352,-51.328 -96.961,-50.273C-97.57,-49.219 -97.922,-47.801 -98.016,-46.02L-102.621,-46.02C-102.434,-49.559 -101.508,-52.23 -99.844,-54.035C-98.18,-55.84 -96.141,-56.742 -93.727,-56.742C-92.555,-56.742 -91.424,-56.514 -90.334,-56.057C-89.244,-55.6 -88.207,-54.949 -87.223,-54.105C-86.121,-53.145 -85.143,-52.424 -84.287,-51.943C-83.432,-51.463 -82.617,-51.223 -81.844,-51.223C-80.648,-51.223 -79.717,-51.762 -79.049,-52.84C-78.381,-53.918 -78.012,-55.277 -77.941,-56.918L-73.406,-56.918ZM-26.824,-18.949L-55.758,-18.949C-55.758,-16.535 -55.395,-14.432 -54.668,-12.639C-53.941,-10.846 -52.945,-9.375 -51.68,-8.227C-50.461,-7.102 -49.014,-6.258 -47.338,-5.695C-45.662,-5.133 -43.816,-4.852 -41.801,-4.852C-39.129,-4.852 -36.439,-5.385 -33.732,-6.451C-31.025,-7.518 -29.098,-8.566 -27.949,-9.598L-27.598,-9.598L-27.598,-2.391C-29.824,-1.453 -32.098,-0.668 -34.418,-0.035C-36.738,0.598 -39.176,0.914 -41.73,0.914C-48.246,0.914 -53.332,-0.85 -56.988,-4.377C-60.645,-7.904 -62.473,-12.914 -62.473,-19.406C-62.473,-25.828 -60.721,-30.926 -57.217,-34.699C-53.713,-38.473 -49.102,-40.359 -43.383,-40.359C-38.086,-40.359 -34.002,-38.812 -31.131,-35.719C-28.26,-32.625 -26.824,-28.23 -26.824,-22.535L-26.824,-18.949ZM-33.258,-24.012C-33.281,-27.48 -34.154,-30.164 -35.877,-32.062C-37.6,-33.961 -40.219,-34.91 -43.734,-34.91C-47.273,-34.91 -50.092,-33.867 -52.189,-31.781C-54.287,-29.695 -55.477,-27.105 -55.758,-24.012L-33.258,-24.012ZM11.25,-11.32C11.25,-7.734 9.768,-4.793 6.803,-2.496C3.838,-0.199 -0.211,0.949 -5.344,0.949C-8.25,0.949 -10.916,0.604 -13.342,-0.088C-15.768,-0.779 -17.801,-1.535 -19.441,-2.355L-19.441,-9.773L-19.09,-9.773C-17.004,-8.203 -14.684,-6.955 -12.129,-6.029C-9.574,-5.104 -7.125,-4.641 -4.781,-4.641C-1.875,-4.641 0.398,-5.109 2.039,-6.047C3.68,-6.984 4.5,-8.461 4.5,-10.477C4.5,-12.023 4.055,-13.195 3.164,-13.992C2.273,-14.789 0.562,-15.469 -1.969,-16.031C-2.906,-16.242 -4.131,-16.488 -5.643,-16.77C-7.154,-17.051 -8.531,-17.355 -9.773,-17.684C-13.219,-18.598 -15.662,-19.939 -17.104,-21.709C-18.545,-23.479 -19.266,-25.652 -19.266,-28.23C-19.266,-29.848 -18.932,-31.371 -18.264,-32.801C-17.596,-34.23 -16.582,-35.508 -15.223,-36.633C-13.91,-37.734 -12.24,-38.607 -10.213,-39.252C-8.186,-39.896 -5.918,-40.219 -3.41,-40.219C-1.066,-40.219 1.307,-39.932 3.709,-39.357C6.111,-38.783 8.109,-38.086 9.703,-37.266L9.703,-30.199L9.352,-30.199C7.664,-31.441 5.613,-32.49 3.199,-33.346C0.785,-34.201 -1.582,-34.629 -3.902,-34.629C-6.316,-34.629 -8.355,-34.166 -10.02,-33.24C-11.684,-32.314 -12.516,-30.938 -12.516,-29.109C-12.516,-27.492 -12.012,-26.273 -11.004,-25.453C-10.02,-24.633 -8.426,-23.965 -6.223,-23.449C-5.004,-23.168 -3.639,-22.887 -2.127,-22.605C-0.615,-22.324 0.645,-22.066 1.652,-21.832C4.723,-21.129 7.09,-19.922 8.754,-18.211C10.418,-16.477 11.25,-14.18 11.25,-11.32ZM78.891,-18.949L49.957,-18.949C49.957,-16.535 50.32,-14.432 51.047,-12.639C51.773,-10.846 52.77,-9.375 54.035,-8.227C55.254,-7.102 56.701,-6.258 58.377,-5.695C60.053,-5.133 61.898,-4.852 63.914,-4.852C66.586,-4.852 69.275,-5.385 71.982,-6.451C74.689,-7.518 76.617,-8.566 77.766,-9.598L78.117,-9.598L78.117,-2.391C75.891,-1.453 73.617,-0.668 71.297,-0.035C68.977,0.598 66.539,0.914 63.984,0.914C57.469,0.914 52.383,-0.85 48.727,-4.377C45.07,-7.904 43.242,-12.914 43.242,-19.406C43.242,-25.828 44.994,-30.926 48.498,-34.699C52.002,-38.473 56.613,-40.359 62.332,-40.359C67.629,-40.359 71.713,-38.812 74.584,-35.719C77.455,-32.625 78.891,-28.23 78.891,-22.535L78.891,-18.949ZM72.457,-24.012C72.434,-27.48 71.561,-30.164 69.838,-32.062C68.115,-33.961 65.496,-34.91 61.98,-34.91C58.441,-34.91 55.623,-33.867 53.525,-31.781C51.428,-29.695 50.238,-27.105 49.957,-24.012L72.457,-24.012ZM152.789,-14.941C152.789,-12.902 152.314,-10.887 151.365,-8.895C150.416,-6.902 149.086,-5.215 147.375,-3.832C145.5,-2.332 143.314,-1.16 140.818,-0.316C138.322,0.527 135.316,0.949 131.801,0.949C128.027,0.949 124.635,0.598 121.623,-0.105C118.611,-0.809 115.547,-1.852 112.43,-3.234L112.43,-11.953L112.922,-11.953C115.57,-9.75 118.629,-8.051 122.098,-6.855C125.566,-5.66 128.824,-5.062 131.871,-5.062C136.184,-5.062 139.541,-5.871 141.943,-7.488C144.346,-9.105 145.547,-11.262 145.547,-13.957C145.547,-16.277 144.979,-17.988 143.842,-19.09C142.705,-20.191 140.977,-21.047 138.656,-21.656C136.898,-22.125 134.994,-22.512 132.943,-22.816C130.893,-23.121 128.719,-23.508 126.422,-23.977C121.781,-24.961 118.342,-26.643 116.104,-29.021C113.865,-31.4 112.746,-34.5 112.746,-38.32C112.746,-42.703 114.598,-46.295 118.301,-49.096C122.004,-51.896 126.703,-53.297 132.398,-53.297C136.078,-53.297 139.453,-52.945 142.523,-52.242C145.594,-51.539 148.312,-50.672 150.68,-49.641L150.68,-41.414L150.188,-41.414C148.195,-43.102 145.576,-44.502 142.33,-45.615C139.084,-46.729 135.762,-47.285 132.363,-47.285C128.637,-47.285 125.643,-46.512 123.381,-44.965C121.119,-43.418 119.988,-41.426 119.988,-38.988C119.988,-36.809 120.551,-35.098 121.676,-33.855C122.801,-32.613 124.781,-31.664 127.617,-31.008C129.117,-30.68 131.25,-30.281 134.016,-29.812C136.781,-29.344 139.125,-28.863 141.047,-28.371C144.938,-27.34 147.867,-25.781 149.836,-23.695C151.805,-21.609 152.789,-18.691 152.789,-14.941ZM196.91,-19.617C196.91,-13.219 195.27,-8.168 191.988,-4.465C188.707,-0.762 184.312,1.09 178.805,1.09C173.25,1.09 168.838,-0.762 165.568,-4.465C162.299,-8.168 160.664,-13.219 160.664,-19.617C160.664,-26.016 162.299,-31.072 165.568,-34.787C168.838,-38.502 173.25,-40.359 178.805,-40.359C184.312,-40.359 188.707,-38.502 191.988,-34.787C195.27,-31.072 196.91,-26.016 196.91,-19.617ZM190.09,-19.617C190.09,-24.703 189.094,-28.482 187.102,-30.955C185.109,-33.428 182.344,-34.664 178.805,-34.664C175.219,-34.664 172.436,-33.428 170.455,-30.955C168.475,-28.482 167.484,-24.703 167.484,-19.617C167.484,-14.695 168.48,-10.963 170.473,-8.42C172.465,-5.877 175.242,-4.605 178.805,-4.605C182.32,-4.605 185.08,-5.865 187.084,-8.385C189.088,-10.904 190.09,-14.648 190.09,-19.617ZM228.27,-48.305L227.918,-48.305C227.191,-48.516 226.242,-48.732 225.07,-48.955C223.898,-49.178 222.867,-49.289 221.977,-49.289C219.141,-49.289 217.084,-48.662 215.807,-47.408C214.529,-46.154 213.891,-43.887 213.891,-40.605L213.891,-39.27L225.809,-39.27L225.809,-33.715L214.102,-33.715L214.102,0L207.492,0L207.492,-33.715L203.027,-33.715L203.027,-39.27L207.492,-39.27L207.492,-40.57C207.492,-45.234 208.652,-48.814 210.973,-51.311C213.293,-53.807 216.645,-55.055 221.027,-55.055C222.504,-55.055 223.834,-54.984 225.018,-54.844C226.201,-54.703 227.285,-54.539 228.27,-54.352L228.27,-48.305ZM262.969,0L256.395,0L256.395,-4.184C255.809,-3.785 255.018,-3.229 254.021,-2.514C253.025,-1.799 252.059,-1.23 251.121,-0.809C250.02,-0.27 248.754,0.182 247.324,0.545C245.895,0.908 244.219,1.09 242.297,1.09C238.758,1.09 235.758,-0.082 233.297,-2.426C230.836,-4.77 229.605,-7.758 229.605,-11.391C229.605,-14.367 230.244,-16.775 231.521,-18.615C232.799,-20.455 234.621,-21.902 236.988,-22.957C239.379,-24.012 242.25,-24.727 245.602,-25.102C248.953,-25.477 252.551,-25.758 256.395,-25.945L256.395,-26.965C256.395,-28.465 256.131,-29.707 255.604,-30.691C255.076,-31.676 254.32,-32.449 253.336,-33.012C252.398,-33.551 251.273,-33.914 249.961,-34.102C248.648,-34.289 247.277,-34.383 245.848,-34.383C244.113,-34.383 242.18,-34.154 240.047,-33.697C237.914,-33.24 235.711,-32.578 233.438,-31.711L233.086,-31.711L233.086,-38.426C234.375,-38.777 236.238,-39.164 238.676,-39.586C241.113,-40.008 243.516,-40.219 245.883,-40.219C248.648,-40.219 251.057,-39.99 253.107,-39.533C255.158,-39.076 256.934,-38.297 258.434,-37.195C259.91,-36.117 261.035,-34.723 261.809,-33.012C262.582,-31.301 262.969,-29.18 262.969,-26.648L262.969,0ZM256.395,-9.668L256.395,-20.602C254.379,-20.484 252.006,-20.309 249.275,-20.074C246.545,-19.84 244.383,-19.5 242.789,-19.055C240.891,-18.516 239.355,-17.678 238.184,-16.541C237.012,-15.404 236.426,-13.84 236.426,-11.848C236.426,-9.598 237.105,-7.904 238.465,-6.768C239.824,-5.631 241.898,-5.062 244.688,-5.062C247.008,-5.062 249.129,-5.514 251.051,-6.416C252.973,-7.318 254.754,-8.402 256.395,-9.668ZM258.785,-58.922L249.188,-45.773L243.949,-45.773L250.242,-58.922L258.785,-58.922ZM303.75,-11.32C303.75,-7.734 302.268,-4.793 299.303,-2.496C296.338,-0.199 292.289,0.949 287.156,0.949C284.25,0.949 281.584,0.604 279.158,-0.088C276.732,-0.779 274.699,-1.535 273.059,-2.355L273.059,-9.773L273.41,-9.773C275.496,-8.203 277.816,-6.955 280.371,-6.029C282.926,-5.104 285.375,-4.641 287.719,-4.641C290.625,-4.641 292.898,-5.109 294.539,-6.047C296.18,-6.984 297,-8.461 297,-10.477C297,-12.023 296.555,-13.195 295.664,-13.992C294.773,-14.789 293.062,-15.469 290.531,-16.031C289.594,-16.242 288.369,-16.488 286.857,-16.77C285.346,-17.051 283.969,-17.355 282.727,-17.684C279.281,-18.598 276.838,-19.939 275.396,-21.709C273.955,-23.479 273.234,-25.652 273.234,-28.23C273.234,-29.848 273.568,-31.371 274.236,-32.801C274.904,-34.23 275.918,-35.508 277.277,-36.633C278.59,-37.734 280.26,-38.607 282.287,-39.252C284.314,-39.896 286.582,-40.219 289.09,-40.219C291.434,-40.219 293.807,-39.932 296.209,-39.357C298.611,-38.783 300.609,-38.086 302.203,-37.266L302.203,-30.199L301.852,-30.199C300.164,-31.441 298.113,-32.49 295.699,-33.346C293.285,-34.201 290.918,-34.629 288.598,-34.629C286.184,-34.629 284.145,-34.166 282.48,-33.24C280.816,-32.314 279.984,-30.938 279.984,-29.109C279.984,-27.492 280.488,-26.273 281.496,-25.453C282.48,-24.633 284.074,-23.965 286.277,-23.449C287.496,-23.168 288.861,-22.887 290.373,-22.605C291.885,-22.324 293.145,-22.066 294.152,-21.832C297.223,-21.129 299.59,-19.922 301.254,-18.211C302.918,-16.477 303.75,-14.18 303.75,-11.32Z" style="fill:white;"/>
    </g>
</svg>
